<mxfile host="app.diagrams.net" modified="2023-10-16T05:46:53.108Z" agent="Mozilla/5.0 (Windows NT 10.0; Win64; x64; rv:109.0) Gecko/20100101 Firefox/118.0" etag="zhDwppWaEVlTY6CREm_T" version="22.0.4" type="device">
  <diagram name="Page-1" id="e2plY7jK_sSFSdy8FTSk">
    <mxGraphModel dx="704" dy="313" grid="1" gridSize="10" guides="1" tooltips="1" connect="1" arrows="1" fold="1" page="1" pageScale="1" pageWidth="850" pageHeight="1100" math="0" shadow="0">
      <root>
        <mxCell id="0" />
        <mxCell id="1" parent="0" />
        <mxCell id="L435anUtbJDOd9un4M-f-1" value="Uzdevums: Programma, kas saskaita skaitļus no 1 līdz 100" style="text;html=1;strokeColor=none;fillColor=none;align=center;verticalAlign=middle;whiteSpace=wrap;rounded=0;" vertex="1" parent="1">
          <mxGeometry x="40" y="10" width="340" height="30" as="geometry" />
        </mxCell>
        <mxCell id="L435anUtbJDOd9un4M-f-9" style="edgeStyle=orthogonalEdgeStyle;rounded=0;orthogonalLoop=1;jettySize=auto;html=1;exitX=0.5;exitY=1;exitDx=0;exitDy=0;entryX=0.5;entryY=0;entryDx=0;entryDy=0;" edge="1" parent="1" source="L435anUtbJDOd9un4M-f-2" target="L435anUtbJDOd9un4M-f-3">
          <mxGeometry relative="1" as="geometry" />
        </mxCell>
        <mxCell id="L435anUtbJDOd9un4M-f-2" value="Sākums" style="ellipse;whiteSpace=wrap;html=1;aspect=fixed;" vertex="1" parent="1">
          <mxGeometry x="90" y="70" width="50" height="50" as="geometry" />
        </mxCell>
        <mxCell id="L435anUtbJDOd9un4M-f-10" style="edgeStyle=orthogonalEdgeStyle;rounded=0;orthogonalLoop=1;jettySize=auto;html=1;exitX=0.5;exitY=1;exitDx=0;exitDy=0;entryX=0.5;entryY=0;entryDx=0;entryDy=0;" edge="1" parent="1" source="L435anUtbJDOd9un4M-f-3" target="L435anUtbJDOd9un4M-f-4">
          <mxGeometry relative="1" as="geometry" />
        </mxCell>
        <mxCell id="L435anUtbJDOd9un4M-f-3" value="&lt;div&gt;sum = 0&lt;/div&gt;&lt;div&gt;x = 1&lt;br&gt;&lt;/div&gt;" style="rounded=0;whiteSpace=wrap;html=1;" vertex="1" parent="1">
          <mxGeometry x="57.5" y="140" width="115" height="50" as="geometry" />
        </mxCell>
        <mxCell id="L435anUtbJDOd9un4M-f-11" style="edgeStyle=orthogonalEdgeStyle;rounded=0;orthogonalLoop=1;jettySize=auto;html=1;exitX=0.5;exitY=1;exitDx=0;exitDy=0;entryX=0.5;entryY=0;entryDx=0;entryDy=0;" edge="1" parent="1" source="L435anUtbJDOd9un4M-f-4" target="L435anUtbJDOd9un4M-f-5">
          <mxGeometry relative="1" as="geometry" />
        </mxCell>
        <mxCell id="L435anUtbJDOd9un4M-f-14" style="edgeStyle=orthogonalEdgeStyle;rounded=0;orthogonalLoop=1;jettySize=auto;html=1;exitX=1;exitY=0.5;exitDx=0;exitDy=0;entryX=0;entryY=0.5;entryDx=0;entryDy=0;" edge="1" parent="1" source="L435anUtbJDOd9un4M-f-4" target="L435anUtbJDOd9un4M-f-7">
          <mxGeometry relative="1" as="geometry" />
        </mxCell>
        <mxCell id="L435anUtbJDOd9un4M-f-4" value="x &amp;lt;= 100" style="rhombus;whiteSpace=wrap;html=1;" vertex="1" parent="1">
          <mxGeometry x="80" y="220" width="80" height="80" as="geometry" />
        </mxCell>
        <mxCell id="L435anUtbJDOd9un4M-f-12" style="edgeStyle=orthogonalEdgeStyle;rounded=0;orthogonalLoop=1;jettySize=auto;html=1;exitX=0.5;exitY=1;exitDx=0;exitDy=0;entryX=0.5;entryY=0;entryDx=0;entryDy=0;" edge="1" parent="1" source="L435anUtbJDOd9un4M-f-5" target="L435anUtbJDOd9un4M-f-6">
          <mxGeometry relative="1" as="geometry" />
        </mxCell>
        <mxCell id="L435anUtbJDOd9un4M-f-5" value="sum += x" style="rounded=0;whiteSpace=wrap;html=1;" vertex="1" parent="1">
          <mxGeometry x="58" y="330" width="120" height="60" as="geometry" />
        </mxCell>
        <mxCell id="L435anUtbJDOd9un4M-f-13" style="edgeStyle=orthogonalEdgeStyle;rounded=0;orthogonalLoop=1;jettySize=auto;html=1;exitX=0;exitY=0.5;exitDx=0;exitDy=0;" edge="1" parent="1" source="L435anUtbJDOd9un4M-f-6">
          <mxGeometry relative="1" as="geometry">
            <mxPoint x="120" y="200" as="targetPoint" />
            <Array as="points">
              <mxPoint x="40" y="450" />
              <mxPoint x="40" y="200" />
            </Array>
          </mxGeometry>
        </mxCell>
        <mxCell id="L435anUtbJDOd9un4M-f-6" value="x += 1" style="rounded=0;whiteSpace=wrap;html=1;" vertex="1" parent="1">
          <mxGeometry x="60" y="420" width="120" height="60" as="geometry" />
        </mxCell>
        <mxCell id="L435anUtbJDOd9un4M-f-15" style="edgeStyle=orthogonalEdgeStyle;rounded=0;orthogonalLoop=1;jettySize=auto;html=1;exitX=1;exitY=0.5;exitDx=0;exitDy=0;entryX=0;entryY=0.5;entryDx=0;entryDy=0;" edge="1" parent="1" source="L435anUtbJDOd9un4M-f-7" target="L435anUtbJDOd9un4M-f-8">
          <mxGeometry relative="1" as="geometry" />
        </mxCell>
        <mxCell id="L435anUtbJDOd9un4M-f-7" value="sum" style="shape=parallelogram;perimeter=parallelogramPerimeter;whiteSpace=wrap;html=1;fixedSize=1;" vertex="1" parent="1">
          <mxGeometry x="190" y="230" width="120" height="60" as="geometry" />
        </mxCell>
        <mxCell id="L435anUtbJDOd9un4M-f-8" value="Beigas" style="ellipse;whiteSpace=wrap;html=1;aspect=fixed;" vertex="1" parent="1">
          <mxGeometry x="345" y="220" width="80" height="80" as="geometry" />
        </mxCell>
        <mxCell id="L435anUtbJDOd9un4M-f-16" value="&lt;div&gt;Uzdevums: &lt;br&gt;&lt;/div&gt;&lt;div&gt;Dots - Saraksts ar skaitļiem.&lt;br&gt;Jānosaka lielākā vērtība sarakstā&lt;br&gt;&lt;br&gt;piem. &lt;br&gt;x = [ 0, 34, 31, 23, 44, 66, 33]&lt;/div&gt;&lt;div&gt;for .........&lt;br&gt;&lt;/div&gt;&lt;div&gt;&lt;br&gt;&lt;/div&gt;&lt;div&gt;&lt;br&gt;&lt;/div&gt;" style="text;html=1;align=center;verticalAlign=middle;resizable=0;points=[];autosize=1;strokeColor=none;fillColor=none;" vertex="1" parent="1">
          <mxGeometry x="590" width="210" height="140" as="geometry" />
        </mxCell>
        <mxCell id="L435anUtbJDOd9un4M-f-17" style="edgeStyle=orthogonalEdgeStyle;rounded=0;orthogonalLoop=1;jettySize=auto;html=1;exitX=0.5;exitY=1;exitDx=0;exitDy=0;entryX=0.5;entryY=0;entryDx=0;entryDy=0;" edge="1" parent="1" source="L435anUtbJDOd9un4M-f-18" target="L435anUtbJDOd9un4M-f-19">
          <mxGeometry relative="1" as="geometry" />
        </mxCell>
        <mxCell id="L435anUtbJDOd9un4M-f-18" value="Sākums" style="ellipse;whiteSpace=wrap;html=1;aspect=fixed;" vertex="1" parent="1">
          <mxGeometry x="670" y="120" width="50" height="50" as="geometry" />
        </mxCell>
        <mxCell id="L435anUtbJDOd9un4M-f-34" style="edgeStyle=orthogonalEdgeStyle;rounded=0;orthogonalLoop=1;jettySize=auto;html=1;exitX=0.5;exitY=1;exitDx=0;exitDy=0;entryX=0.5;entryY=0;entryDx=0;entryDy=0;" edge="1" parent="1" source="L435anUtbJDOd9un4M-f-19" target="L435anUtbJDOd9un4M-f-20">
          <mxGeometry relative="1" as="geometry" />
        </mxCell>
        <mxCell id="L435anUtbJDOd9un4M-f-19" value="&lt;div&gt;max = 0&lt;/div&gt;&lt;div&gt;arr = [ skaitļi ]&lt;/div&gt;&lt;div&gt;x = 0&lt;br&gt;&lt;/div&gt;" style="rounded=0;whiteSpace=wrap;html=1;" vertex="1" parent="1">
          <mxGeometry x="637.5" y="190" width="115" height="50" as="geometry" />
        </mxCell>
        <mxCell id="L435anUtbJDOd9un4M-f-23" style="edgeStyle=orthogonalEdgeStyle;rounded=0;orthogonalLoop=1;jettySize=auto;html=1;exitX=0.5;exitY=1;exitDx=0;exitDy=0;entryX=0.5;entryY=0;entryDx=0;entryDy=0;" edge="1" parent="1" source="L435anUtbJDOd9un4M-f-20" target="L435anUtbJDOd9un4M-f-21">
          <mxGeometry relative="1" as="geometry" />
        </mxCell>
        <mxCell id="L435anUtbJDOd9un4M-f-39" style="edgeStyle=orthogonalEdgeStyle;rounded=0;orthogonalLoop=1;jettySize=auto;html=1;exitX=1;exitY=0.5;exitDx=0;exitDy=0;" edge="1" parent="1" source="L435anUtbJDOd9un4M-f-20" target="L435anUtbJDOd9un4M-f-36">
          <mxGeometry relative="1" as="geometry" />
        </mxCell>
        <mxCell id="L435anUtbJDOd9un4M-f-20" value="x &amp;lt; arr.length" style="rhombus;whiteSpace=wrap;html=1;" vertex="1" parent="1">
          <mxGeometry x="655" y="260" width="80" height="80" as="geometry" />
        </mxCell>
        <mxCell id="L435anUtbJDOd9un4M-f-26" style="edgeStyle=orthogonalEdgeStyle;rounded=0;orthogonalLoop=1;jettySize=auto;html=1;exitX=0.5;exitY=1;exitDx=0;exitDy=0;entryX=0.5;entryY=0;entryDx=0;entryDy=0;" edge="1" parent="1" source="L435anUtbJDOd9un4M-f-21" target="L435anUtbJDOd9un4M-f-22">
          <mxGeometry relative="1" as="geometry" />
        </mxCell>
        <mxCell id="L435anUtbJDOd9un4M-f-29" style="edgeStyle=orthogonalEdgeStyle;rounded=0;orthogonalLoop=1;jettySize=auto;html=1;exitX=0;exitY=0.5;exitDx=0;exitDy=0;entryX=1;entryY=0.5;entryDx=0;entryDy=0;" edge="1" parent="1" source="L435anUtbJDOd9un4M-f-21" target="L435anUtbJDOd9un4M-f-27">
          <mxGeometry relative="1" as="geometry" />
        </mxCell>
        <mxCell id="L435anUtbJDOd9un4M-f-21" value="arr[x] &amp;gt; max" style="rhombus;whiteSpace=wrap;html=1;" vertex="1" parent="1">
          <mxGeometry x="655" y="370" width="80" height="80" as="geometry" />
        </mxCell>
        <mxCell id="L435anUtbJDOd9un4M-f-28" style="edgeStyle=orthogonalEdgeStyle;rounded=0;orthogonalLoop=1;jettySize=auto;html=1;exitX=0;exitY=0.5;exitDx=0;exitDy=0;entryX=0.5;entryY=1;entryDx=0;entryDy=0;" edge="1" parent="1" source="L435anUtbJDOd9un4M-f-22" target="L435anUtbJDOd9un4M-f-27">
          <mxGeometry relative="1" as="geometry" />
        </mxCell>
        <mxCell id="L435anUtbJDOd9un4M-f-22" value="max = arr[x]" style="rounded=0;whiteSpace=wrap;html=1;" vertex="1" parent="1">
          <mxGeometry x="632.5" y="500" width="120" height="60" as="geometry" />
        </mxCell>
        <mxCell id="L435anUtbJDOd9un4M-f-24" value="Jā" style="text;html=1;align=center;verticalAlign=middle;resizable=0;points=[];autosize=1;strokeColor=none;fillColor=none;" vertex="1" parent="1">
          <mxGeometry x="655" y="340" width="40" height="30" as="geometry" />
        </mxCell>
        <mxCell id="L435anUtbJDOd9un4M-f-25" value="Nē" style="text;html=1;align=center;verticalAlign=middle;resizable=0;points=[];autosize=1;strokeColor=none;fillColor=none;" vertex="1" parent="1">
          <mxGeometry x="150" y="230" width="40" height="30" as="geometry" />
        </mxCell>
        <mxCell id="L435anUtbJDOd9un4M-f-33" style="edgeStyle=orthogonalEdgeStyle;rounded=0;orthogonalLoop=1;jettySize=auto;html=1;exitX=0.5;exitY=0;exitDx=0;exitDy=0;" edge="1" parent="1" source="L435anUtbJDOd9un4M-f-27">
          <mxGeometry relative="1" as="geometry">
            <mxPoint x="690" y="250" as="targetPoint" />
            <Array as="points">
              <mxPoint x="500" y="250" />
            </Array>
          </mxGeometry>
        </mxCell>
        <mxCell id="L435anUtbJDOd9un4M-f-27" value="x += 1" style="rounded=0;whiteSpace=wrap;html=1;" vertex="1" parent="1">
          <mxGeometry x="440" y="380" width="120" height="60" as="geometry" />
        </mxCell>
        <mxCell id="L435anUtbJDOd9un4M-f-30" value="Jā" style="text;html=1;align=center;verticalAlign=middle;resizable=0;points=[];autosize=1;strokeColor=none;fillColor=none;" vertex="1" parent="1">
          <mxGeometry x="655" y="450" width="40" height="30" as="geometry" />
        </mxCell>
        <mxCell id="L435anUtbJDOd9un4M-f-31" value="Nē" style="text;html=1;align=center;verticalAlign=middle;resizable=0;points=[];autosize=1;strokeColor=none;fillColor=none;" vertex="1" parent="1">
          <mxGeometry x="570" y="380" width="40" height="30" as="geometry" />
        </mxCell>
        <mxCell id="L435anUtbJDOd9un4M-f-32" value="Nē" style="text;html=1;align=center;verticalAlign=middle;resizable=0;points=[];autosize=1;strokeColor=none;fillColor=none;" vertex="1" parent="1">
          <mxGeometry x="490" y="448" width="40" height="30" as="geometry" />
        </mxCell>
        <mxCell id="L435anUtbJDOd9un4M-f-38" style="edgeStyle=orthogonalEdgeStyle;rounded=0;orthogonalLoop=1;jettySize=auto;html=1;exitX=1;exitY=0.5;exitDx=0;exitDy=0;entryX=0;entryY=0.5;entryDx=0;entryDy=0;" edge="1" parent="1" source="L435anUtbJDOd9un4M-f-36" target="L435anUtbJDOd9un4M-f-37">
          <mxGeometry relative="1" as="geometry" />
        </mxCell>
        <mxCell id="L435anUtbJDOd9un4M-f-36" value="max" style="shape=parallelogram;perimeter=parallelogramPerimeter;whiteSpace=wrap;html=1;fixedSize=1;" vertex="1" parent="1">
          <mxGeometry x="780" y="270" width="120" height="60" as="geometry" />
        </mxCell>
        <mxCell id="L435anUtbJDOd9un4M-f-37" value="Beigas" style="ellipse;whiteSpace=wrap;html=1;aspect=fixed;" vertex="1" parent="1">
          <mxGeometry x="950" y="265" width="70" height="70" as="geometry" />
        </mxCell>
        <mxCell id="L435anUtbJDOd9un4M-f-40" value="Nē" style="text;html=1;align=center;verticalAlign=middle;resizable=0;points=[];autosize=1;strokeColor=none;fillColor=none;" vertex="1" parent="1">
          <mxGeometry x="735" y="270" width="40" height="30" as="geometry" />
        </mxCell>
        <mxCell id="L435anUtbJDOd9un4M-f-41" value="Aprēķinat vai ievadītais gads ir garais gads" style="text;html=1;strokeColor=none;fillColor=none;align=center;verticalAlign=middle;whiteSpace=wrap;rounded=0;" vertex="1" parent="1">
          <mxGeometry x="80" y="610" width="260" height="30" as="geometry" />
        </mxCell>
        <mxCell id="L435anUtbJDOd9un4M-f-42" style="edgeStyle=orthogonalEdgeStyle;rounded=0;orthogonalLoop=1;jettySize=auto;html=1;exitX=0.5;exitY=1;exitDx=0;exitDy=0;" edge="1" parent="1" source="L435anUtbJDOd9un4M-f-43">
          <mxGeometry relative="1" as="geometry">
            <mxPoint x="199.66666666666674" y="720" as="targetPoint" />
          </mxGeometry>
        </mxCell>
        <mxCell id="L435anUtbJDOd9un4M-f-43" value="Sākums" style="ellipse;whiteSpace=wrap;html=1;aspect=fixed;" vertex="1" parent="1">
          <mxGeometry x="175" y="650" width="50" height="50" as="geometry" />
        </mxCell>
        <mxCell id="L435anUtbJDOd9un4M-f-44" value="Lietotājs ievada gadu" style="text;html=1;strokeColor=none;fillColor=none;align=center;verticalAlign=middle;whiteSpace=wrap;rounded=0;" vertex="1" parent="1">
          <mxGeometry x="290" y="670" width="170" height="30" as="geometry" />
        </mxCell>
        <mxCell id="L435anUtbJDOd9un4M-f-45" value="Programma aprēķina vai gads ir garais gads" style="text;html=1;strokeColor=none;fillColor=none;align=center;verticalAlign=middle;whiteSpace=wrap;rounded=0;" vertex="1" parent="1">
          <mxGeometry x="290" y="700" width="170" height="30" as="geometry" />
        </mxCell>
        <mxCell id="L435anUtbJDOd9un4M-f-46" value="Programma izvada, vai gads ir garais gads" style="text;html=1;align=center;verticalAlign=middle;resizable=0;points=[];autosize=1;strokeColor=none;fillColor=none;" vertex="1" parent="1">
          <mxGeometry x="255" y="730" width="250" height="30" as="geometry" />
        </mxCell>
        <mxCell id="L435anUtbJDOd9un4M-f-47" value="Jāiesniedz blokshēma &amp;amp; programma" style="text;html=1;align=center;verticalAlign=middle;resizable=0;points=[];autosize=1;strokeColor=none;fillColor=none;" vertex="1" parent="1">
          <mxGeometry x="90" y="778" width="220" height="30" as="geometry" />
        </mxCell>
        <mxCell id="L435anUtbJDOd9un4M-f-48" value="Programmas gaita:" style="text;html=1;align=center;verticalAlign=middle;resizable=0;points=[];autosize=1;strokeColor=none;fillColor=none;" vertex="1" parent="1">
          <mxGeometry x="310" y="640" width="120" height="30" as="geometry" />
        </mxCell>
        <mxCell id="L435anUtbJDOd9un4M-f-49" value="Uzdevums" style="text;html=1;align=center;verticalAlign=middle;resizable=0;points=[];autosize=1;strokeColor=none;fillColor=none;" vertex="1" parent="1">
          <mxGeometry x="160" y="588" width="80" height="30" as="geometry" />
        </mxCell>
      </root>
    </mxGraphModel>
  </diagram>
</mxfile>
